Roman_opsz7_wght700.ufo
<glyph name="exclam" format="2">
  <advance width="397"/>
  <unicode hex="0021"/>
  <outline>
    <contour>
      <point x="277" y="604" type="line" smooth="yes"/>
      <point x="278" y="611"/>
      <point x="280" y="626"/>
      <point x="280" y="631" type="curve" smooth="yes"/>
      <point x="280" y="680"/>
      <point x="236" y="706"/>
      <point x="199" y="706" type="curve" smooth="yes"/>
      <point x="158" y="706"/>
      <point x="117" y="678"/>
      <point x="117" y="631" type="curve" smooth="yes"/>
      <point x="117" y="626"/>
      <point x="119" y="612"/>
      <point x="120" y="604" type="curve" smooth="yes"/>
      <point x="166" y="259" type="line" smooth="yes"/>
      <point x="169" y="235"/>
      <point x="170" y="231"/>
      <point x="199" y="231" type="curve" smooth="yes"/>
      <point x="227" y="231"/>
      <point x="228" y="236"/>
      <point x="231" y="258" type="curve" smooth="yes"/>
    </contour>
    <contour>
      <point x="280" y="81" type="curve" smooth="yes"/>
      <point x="280" y="129"/>
      <point x="241" y="163"/>
      <point x="199" y="163" type="curve" smooth="yes"/>
      <point x="151" y="163"/>
      <point x="117" y="124"/>
      <point x="117" y="82" type="curve" smooth="yes"/>
      <point x="117" y="34"/>
      <point x="156" y="0"/>
      <point x="198" y="0" type="curve" smooth="yes"/>
      <point x="246" y="0"/>
      <point x="280" y="39"/>
    </contour>
  </outline>
</glyph>
<glyph name="numbersign" format="2">
  <advance width="1073"/>
  <unicode hex="0023"/>
  <outline>
    <contour>
      <point x="254" y="-194" type="curve" smooth="yes"/>
      <point x="280" y="-194"/>
      <point x="288" y="-170"/>
      <point x="291" y="-162" type="curve" smooth="yes"/>
      <point x="377" y="89" type="line"/>
      <point x="583" y="89" type="line"/>
      <point x="517" y="-101" type="line" smooth="yes"/>
      <point x="511" y="-120"/>
      <point x="500" y="-152"/>
      <point x="500" y="-158" type="curve" smooth="yes"/>
      <point x="500" y="-176"/>
      <point x="514" y="-194"/>
      <point x="537" y="-194" type="curve" smooth="yes"/>
      <point x="563" y="-194"/>
      <point x="571" y="-170"/>
      <point x="574" y="-162" type="curve" smooth="yes"/>
      <point x="660" y="89" type="line"/>
      <point x="945" y="89" type="line" smooth="yes"/>
      <point x="959" y="89"/>
      <point x="997" y="89"/>
      <point x="997" y="126" type="curve" smooth="yes"/>
      <point x="997" y="162"/>
      <point x="962" y="162"/>
      <point x="951" y="162" type="curve" smooth="yes"/>
      <point x="686" y="162" type="line"/>
      <point x="747" y="339" type="line"/>
      <point x="951" y="339" type="line" smooth="yes"/>
      <point x="962" y="339"/>
      <point x="997" y="339"/>
      <point x="997" y="375" type="curve" smooth="yes"/>
      <point x="997" y="412"/>
      <point x="959" y="412"/>
      <point x="945" y="412" type="curve" smooth="yes"/>
      <point x="773" y="412" type="line"/>
      <point x="850" y="636" type="line" smooth="yes"/>
      <point x="855" y="650"/>
      <point x="855" y="655"/>
      <point x="855" y="658" type="curve" smooth="yes"/>
      <point x="855" y="676"/>
      <point x="841" y="694"/>
      <point x="818" y="694" type="curve" smooth="yes"/>
      <point x="793" y="694"/>
      <point x="784" y="671"/>
      <point x="781" y="662" type="curve" smooth="yes"/>
      <point x="696" y="412" type="line"/>
      <point x="490" y="412" type="line"/>
      <point x="567" y="636" type="line" smooth="yes"/>
      <point x="572" y="650"/>
      <point x="572" y="655"/>
      <point x="572" y="658" type="curve" smooth="yes"/>
      <point x="572" y="676"/>
      <point x="558" y="694"/>
      <point x="535" y="694" type="curve" smooth="yes"/>
      <point x="510" y="694"/>
      <point x="501" y="671"/>
      <point x="498" y="662" type="curve" smooth="yes"/>
      <point x="413" y="412" type="line"/>
      <point x="127" y="412" type="line" smooth="yes"/>
      <point x="113" y="412"/>
      <point x="75" y="412"/>
      <point x="75" y="375" type="curve" smooth="yes"/>
      <point x="75" y="339"/>
      <point x="110" y="339"/>
      <point x="121" y="339" type="curve" smooth="yes"/>
      <point x="387" y="339" type="line"/>
      <point x="326" y="162" type="line"/>
      <point x="121" y="162" type="line" smooth="yes"/>
      <point x="110" y="162"/>
      <point x="75" y="162"/>
      <point x="75" y="126" type="curve" smooth="yes"/>
      <point x="75" y="89"/>
      <point x="113" y="89"/>
      <point x="127" y="89" type="curve" smooth="yes"/>
      <point x="300" y="89" type="line"/>
      <point x="234" y="-101" type="line" smooth="yes"/>
      <point x="228" y="-120"/>
      <point x="217" y="-152"/>
      <point x="217" y="-158" type="curve" smooth="yes"/>
      <point x="217" y="-176"/>
      <point x="231" y="-194"/>
    </contour>
    <contour>
      <point x="403" y="162" type="line"/>
      <point x="464" y="339" type="line"/>
      <point x="670" y="339" type="line"/>
      <point x="609" y="162" type="line"/>
    </contour>
  </outline>
</glyph>
<glyph name="parenleft" format="2">
  <advance width="505"/>
  <unicode hex="0028"/>
  <outline>
    <contour>
      <point x="122" y="251" type="curve" smooth="yes"/>
      <point x="122" y="83"/>
      <point x="184" y="-62"/>
      <point x="307" y="-183" type="curve" smooth="yes"/>
      <point x="328" y="-203"/>
      <point x="384" y="-249"/>
      <point x="406" y="-249" type="curve" smooth="yes"/>
      <point x="410" y="-249"/>
      <point x="429" y="-249"/>
      <point x="429" y="-231" type="curve" smooth="yes"/>
      <point x="429" y="-223"/>
      <point x="426" y="-220"/>
      <point x="410" y="-207" type="curve" smooth="yes"/>
      <point x="308" y="-119"/>
      <point x="233" y="38"/>
      <point x="233" y="250" type="curve" smooth="yes"/>
      <point x="233" y="389"/>
      <point x="266" y="587"/>
      <point x="419" y="715" type="curve" smooth="yes"/>
      <point x="424" y="719"/>
      <point x="429" y="723"/>
      <point x="429" y="732" type="curve" smooth="yes"/>
      <point x="429" y="750"/>
      <point x="410" y="750"/>
      <point x="406" y="750" type="curve" smooth="yes"/>
      <point x="385" y="750"/>
      <point x="328" y="704"/>
      <point x="307" y="684" type="curve" smooth="yes"/>
      <point x="210" y="588"/>
      <point x="122" y="452"/>
    </contour>
  </outline>
</glyph>
<glyph name="hyphen" format="2">
  <advance width="434"/>
  <unicode hex="002D"/>
  <outline>
    <contour>
      <point x="358" y="167" type="line"/>
      <point x="358" y="278" type="line"/>
      <point x="18" y="278" type="line"/>
      <point x="18" y="167" type="line"/>
    </contour>
  </outline>
</glyph>
<glyph name="zero" format="2">
  <advance width="647"/>
  <unicode hex="0030"/>
  <outline>
    <contour>
      <point x="323" y="-12" type="curve" smooth="yes"/>
      <point x="414.22927" y="-12.0"/>
      <point x="474.6425799003" y="14.395105064300001"/>
      <point x="514.6016844627968" y="54.104185878107266" type="curve" smooth="yes"/>
      <point x="585.4584776304" y="124.5176287444"/>
      <point x="592.0" y="236.79493"/>
      <point x="592" y="318" type="curve" smooth="yes"/>
      <point x="592.0" y="398.01888"/>
      <point x="586.4980319232" y="516.9747648512"/>
      <point x="512.1669510796083" y="590.339683163046" type="curve" smooth="yes"/>
      <point x="472.2409597952" y="629.746712576"/>
      <point x="412.45664" y="656.0"/>
      <point x="323" y="656" type="curve" smooth="yes"/>
      <point x="232.59103999999996" y="656.0"/>
      <point x="172.48952250079995" y="629.0600511104"/>
      <point x="132.56467972246585" y="588.8346664258938" type="curve" smooth="yes"/>
      <point x="59.43922581279996" y="515.1587466464"/>
      <point x="53.99999999999996" y="396.91448"/>
      <point x="54" y="318" type="curve" smooth="yes"/>
      <point x="54.0" y="237.43434"/>
      <point x="60.5415223696" y="124.97875844819997"/>
      <point x="131.39831553720325" y="54.35360401794709" type="curve" smooth="yes"/>
      <point x="171.3574200997" y="14.525130212399965"/>
      <point x="231.77073" y="-12.000000000000021"/>
    </contour>
    <contour>
      <point x="323" y="34" type="curve" smooth="yes"/>
      <point x="291" y="34"/>
      <point x="261" y="45"/>
      <point x="237" y="66" type="curve" smooth="yes"/>
      <point x="210" y="89"/>
      <point x="193" y="104"/>
      <point x="193" y="331" type="curve" smooth="yes"/>
      <point x="193" y="400"/>
      <point x="193" y="479"/>
      <point x="204" y="527" type="curve" smooth="yes"/>
      <point x="220" y="592"/>
      <point x="282" y="610"/>
      <point x="323" y="610" type="curve" smooth="yes"/>
      <point x="361" y="610"/>
      <point x="426" y="594"/>
      <point x="442" y="525" type="curve" smooth="yes"/>
      <point x="453" y="478"/>
      <point x="453" y="395"/>
      <point x="453" y="331" type="curve" smooth="yes"/>
      <point x="453" y="261"/>
      <point x="453" y="188"/>
      <point x="443" y="132" type="curve" smooth="yes"/>
      <point x="429" y="51"/>
      <point x="360" y="34"/>
    </contour>
  </outline>
</glyph>
<glyph name="nine" format="2">
  <advance width="647"/>
  <unicode hex="0039"/>
  <outline>
    <contour>
      <point x="442" y="302" type="curve"/>
      <point x="442" y="232"/>
      <point x="438" y="159"/>
      <point x="409" y="112" type="curve" smooth="yes"/>
      <point x="378" y="63"/>
      <point x="325" y="39"/>
      <point x="268" y="39" type="curve" smooth="yes"/>
      <point x="259" y="39"/>
      <point x="218" y="39"/>
      <point x="187" y="58" type="curve"/>
      <point x="214" y="70"/>
      <point x="228" y="93"/>
      <point x="228" y="122" type="curve" smooth="yes"/>
      <point x="228" y="160"/>
      <point x="201" y="191"/>
      <point x="159" y="191" type="curve" smooth="yes"/>
      <point x="118" y="191"/>
      <point x="89" y="163"/>
      <point x="89" y="120" type="curve" smooth="yes"/>
      <point x="89" y="52"/>
      <point x="138" y="-12"/>
      <point x="270" y="-12" type="curve" smooth="yes"/>
      <point x="438" y="-12"/>
      <point x="589" y="95"/>
      <point x="589" y="328" type="curve" smooth="yes"/>
      <point x="589" y="486"/>
      <point x="540" y="656"/>
      <point x="325" y="656" type="curve" smooth="yes"/>
      <point x="162" y="656"/>
      <point x="57" y="570"/>
      <point x="57" y="440" type="curve" smooth="yes"/>
      <point x="57" y="306"/>
      <point x="161" y="225"/>
      <point x="302" y="225" type="curve" smooth="yes"/>
      <point x="326" y="225"/>
      <point x="390" y="225"/>
    </contour>
    <contour>
      <point x="313" y="271" type="curve" smooth="yes"/>
      <point x="204" y="271"/>
      <point x="204" y="347"/>
      <point x="204" y="439" type="curve" smooth="yes"/>
      <point x="204" y="527"/>
      <point x="204" y="610"/>
      <point x="326" y="610" type="curve" smooth="yes"/>
      <point x="386" y="610"/>
      <point x="413" y="571"/>
      <point x="423" y="552" type="curve" smooth="yes"/>
      <point x="440" y="521"/>
      <point x="440" y="436"/>
      <point x="440" y="435" type="curve" smooth="yes"/>
      <point x="440" y="332"/>
      <point x="384" y="271"/>
    </contour>
  </outline>
</glyph>
<glyph name="at" format="2">
  <advance width="1002"/>
  <unicode hex="0040"/>
  <outline>
    <contour>
      <point x="755" y="452" type="line" smooth="yes"/>
      <point x="755" y="480"/>
      <point x="752" y="484"/>
      <point x="722" y="484" type="curve" smooth="yes"/>
      <point x="700" y="484" type="line" smooth="yes"/>
      <point x="684" y="484"/>
      <point x="683" y="485"/>
      <point x="675" y="494" type="curve" smooth="yes"/>
      <point x="640" y="535"/>
      <point x="582" y="568"/>
      <point x="499" y="568" type="curve" smooth="yes"/>
      <point x="336" y="568"/>
      <point x="246" y="469"/>
      <point x="246" y="347" type="curve" smooth="yes"/>
      <point x="246" y="224"/>
      <point x="337" y="126"/>
      <point x="499" y="126" type="curve" smooth="yes"/>
      <point x="542" y="126"/>
      <point x="596" y="135"/>
      <point x="642" y="170" type="curve"/>
      <point x="678" y="127"/>
      <point x="756" y="126"/>
      <point x="775" y="126" type="curve" smooth="yes"/>
      <point x="900" y="126"/>
      <point x="926" y="269"/>
      <point x="926" y="346" type="curve" smooth="yes"/>
      <point x="926" y="535"/>
      <point x="786" y="700"/>
      <point x="501" y="700" type="curve" smooth="yes"/>
      <point x="205" y="700"/>
      <point x="75" y="525"/>
      <point x="75" y="347" type="curve" smooth="yes"/>
      <point x="75" y="182"/>
      <point x="190" y="-6"/>
      <point x="505" y="-6" type="curve" smooth="yes"/>
      <point x="736" y="-6"/>
      <point x="915" y="66"/>
      <point x="918" y="69" type="curve"/>
      <point x="923" y="71"/>
      <point x="926" y="78"/>
      <point x="926" y="83" type="curve" smooth="yes"/>
      <point x="926" y="101"/>
      <point x="909" y="101"/>
      <point x="894" y="101" type="curve" smooth="yes"/>
      <point x="865" y="101" type="line" smooth="yes"/>
      <point x="850" y="101"/>
      <point x="848" y="101"/>
      <point x="829" y="94" type="curve" smooth="yes"/>
      <point x="713" y="54"/>
      <point x="593" y="40"/>
      <point x="505" y="40" type="curve" smooth="yes"/>
      <point x="233" y="40"/>
      <point x="138" y="203"/>
      <point x="138" y="347" type="curve" smooth="yes"/>
      <point x="138" y="514"/>
      <point x="258" y="654"/>
      <point x="500" y="654" type="curve" smooth="yes"/>
      <point x="731" y="654"/>
      <point x="863" y="527"/>
      <point x="863" y="343" type="curve" smooth="yes"/>
      <point x="863" y="315"/>
      <point x="863" y="172"/>
      <point x="787" y="172" type="curve" smooth="yes"/>
      <point x="755" y="172"/>
      <point x="755" y="213"/>
      <point x="755" y="226" type="curve" smooth="yes"/>
    </contour>
    <contour>
      <point x="628" y="233" type="line"/>
      <point x="588" y="177"/>
      <point x="524" y="172"/>
      <point x="502" y="172" type="curve" smooth="yes"/>
      <point x="430" y="172"/>
      <point x="373" y="230"/>
      <point x="373" y="347" type="curve" smooth="yes"/>
      <point x="373" y="464"/>
      <point x="430" y="522"/>
      <point x="502" y="522" type="curve" smooth="yes"/>
      <point x="524" y="522"/>
      <point x="588" y="517"/>
      <point x="628" y="461" type="curve"/>
    </contour>
  </outline>
</glyph>
<glyph name="K" format="2">
  <advance width="1003"/>
  <unicode hex="004B"/>
  <outline>
    <contour>
      <point x="57" y="0" type="line"/>
      <point x="80" y="2"/>
      <point x="223" y="4"/>
      <point x="239" y="4" type="curve" smooth="yes"/>
      <point x="261" y="4"/>
      <point x="400" y="2"/>
      <point x="422" y="0" type="curve"/>
      <point x="422" y="56" type="line"/>
      <point x="315" y="56" type="line"/>
      <point x="315" y="56" type="line"/>
      <point x="315" y="246" type="line"/>
      <point x="438" y="337" type="line"/>
      <point x="678" y="62" type="line"/>
      <point x="678" y="62" type="line"/>
      <point x="656" y="56"/>
      <point x="654" y="56"/>
      <point x="614" y="56" type="curve"/>
      <point x="614" y="0" type="line"/>
      <point x="666" y="4"/>
      <point x="744" y="4"/>
      <point x="797" y="4" type="curve" smooth="yes"/>
      <point x="840" y="4"/>
      <point x="942" y="0"/>
      <point x="944" y="0" type="curve"/>
      <point x="944" y="56" type="line"/>
      <point x="857" y="56"/>
      <point x="857" y="56"/>
      <point x="845" y="70" type="curve" smooth="yes"/>
      <point x="544" y="415" type="line"/>
      <point x="814" y="616" type="line" smooth="yes"/>
      <point x="828" y="627"/>
      <point x="833" y="630"/>
      <point x="927" y="630" type="curve"/>
      <point x="927" y="686" type="line"/>
      <point x="926" y="686"/>
      <point x="865" y="682"/>
      <point x="820" y="682" type="curve" smooth="yes"/>
      <point x="763" y="682"/>
      <point x="665" y="686"/>
      <point x="659" y="686" type="curve"/>
      <point x="659" y="630" type="line"/>
      <point x="677" y="630"/>
      <point x="693" y="630"/>
      <point x="717" y="624" type="curve"/>
      <point x="717" y="624" type="line"/>
      <point x="315" y="324" type="line"/>
      <point x="315" y="630" type="line"/>
      <point x="315" y="630" type="line"/>
      <point x="422" y="630" type="line"/>
      <point x="422" y="686" type="line"/>
      <point x="399" y="684"/>
      <point x="256" y="682"/>
      <point x="240" y="682" type="curve" smooth="yes"/>
      <point x="218" y="682"/>
      <point x="79" y="684"/>
      <point x="57" y="686" type="curve"/>
      <point x="57" y="630" type="line"/>
      <point x="164" y="630" type="line"/>
      <point x="164" y="630" type="line"/>
      <point x="164" y="56" type="line"/>
      <point x="164" y="56" type="line"/>
      <point x="57" y="56" type="line"/>
    </contour>
  </outline>
</glyph>
<glyph name="S" format="2">
  <advance width="718"/>
  <unicode hex="0053"/>
  <outline>
    <contour>
      <point x="75" y="497" type="curve" smooth="yes"/>
      <point x="75" y="444"/>
      <point x="98" y="401"/>
      <point x="128" y="370" type="curve" smooth="yes"/>
      <point x="182" y="316"/>
      <point x="230" y="306"/>
      <point x="355" y="282" type="curve" smooth="yes"/>
      <point x="384" y="277"/>
      <point x="433" y="268"/>
      <point x="441" y="266" type="curve" smooth="yes"/>
      <point x="490" y="253"/>
      <point x="540" y="215"/>
      <point x="540" y="157" type="curve" smooth="yes"/>
      <point x="540" y="146"/>
      <point x="540" y="44"/>
      <point x="389" y="44" type="curve" smooth="yes"/>
      <point x="224" y="44"/>
      <point x="138" y="107"/>
      <point x="138" y="202" type="curve" smooth="yes"/>
      <point x="138" y="222"/>
      <point x="136" y="228"/>
      <point x="107" y="228" type="curve" smooth="yes"/>
      <point x="78" y="228"/>
      <point x="75" y="225"/>
      <point x="75" y="196" type="curve" smooth="yes"/>
      <point x="75" y="20" type="line" smooth="yes"/>
      <point x="75" y="0"/>
      <point x="75" y="-12"/>
      <point x="98" y="-12" type="curve" smooth="yes"/>
      <point x="110" y="-12"/>
      <point x="112" y="-11"/>
      <point x="119" y="-5" type="curve" smooth="yes"/>
      <point x="130" y="5"/>
      <point x="155" y="30"/>
      <point x="166" y="40" type="curve"/>
      <point x="235" y="-3"/>
      <point x="321" y="-12"/>
      <point x="390" y="-12" type="curve" smooth="yes"/>
      <point x="579" y="-12"/>
      <point x="642" y="107"/>
      <point x="642" y="203" type="curve" smooth="yes"/>
      <point x="642.0" y="260.5"/>
      <point x="618.0" y="308.5"/>
      <point x="582.0" y="344.5" type="curve" smooth="yes"/>
      <point x="546.0" y="380.5"/>
      <point x="498.0" y="404.5"/>
      <point x="450" y="414" type="curve" smooth="yes"/>
      <point x="286" y="446" type="line" smooth="yes"/>
      <point x="213" y="460"/>
      <point x="177" y="502"/>
      <point x="177" y="545" type="curve" smooth="yes"/>
      <point x="177" y="587"/>
      <point x="207" y="647"/>
      <point x="324" y="647" type="curve" smooth="yes"/>
      <point x="410" y="647"/>
      <point x="517" y="617"/>
      <point x="541" y="487" type="curve" smooth="yes"/>
      <point x="546" y="461"/>
      <point x="546" y="458"/>
      <point x="574" y="458" type="curve" smooth="yes"/>
      <point x="603" y="458"/>
      <point x="606" y="461"/>
      <point x="606" y="490" type="curve" smooth="yes"/>
      <point x="606" y="666" type="line" smooth="yes"/>
      <point x="606" y="686"/>
      <point x="606" y="698"/>
      <point x="583" y="698" type="curve" smooth="yes"/>
      <point x="572" y="698"/>
      <point x="570" y="698"/>
      <point x="557" y="685" type="curve" smooth="yes"/>
      <point x="515" y="645"/>
      <point x="514" y="645"/>
      <point x="513" y="645" type="curve" smooth="yes"/>
      <point x="507" y="645"/>
      <point x="457" y="698"/>
      <point x="324" y="698" type="curve" smooth="yes"/>
      <point x="143" y="698"/>
      <point x="75" y="590"/>
    </contour>
  </outline>
</glyph>
<glyph name="V" format="2">
  <advance width="967"/>
  <unicode hex="0056"/>
  <outline>
    <contour>
      <point x="829" y="612" type="line" smooth="yes"/>
      <point x="835" y="625"/>
      <point x="838" y="630"/>
      <point x="905" y="630" type="curve" smooth="yes"/>
      <point x="932" y="630" type="line"/>
      <point x="932" y="686" type="line"/>
      <point x="917" y="685"/>
      <point x="847" y="682"/>
      <point x="813" y="682" type="curve" smooth="yes"/>
      <point x="775" y="682"/>
      <point x="676" y="686"/>
      <point x="671" y="686" type="curve"/>
      <point x="671" y="630" type="line"/>
      <point x="710" y="630"/>
      <point x="729" y="629"/>
      <point x="755" y="624" type="curve"/>
      <point x="524" y="145" type="line"/>
      <point x="290" y="630" type="line"/>
      <point x="378" y="630" type="line"/>
      <point x="378" y="686" type="line"/>
      <point x="325" y="682"/>
      <point x="249" y="682"/>
      <point x="195" y="682" type="curve" smooth="yes"/>
      <point x="147" y="682"/>
      <point x="50" y="685"/>
      <point x="35" y="686" type="curve"/>
      <point x="35" y="630" type="line"/>
      <point x="129" y="630" type="line"/>
      <point x="426" y="17" type="line" smooth="yes"/>
      <point x="440" y="-12"/>
      <point x="453" y="-12"/>
      <point x="476" y="-12" type="curve" smooth="yes"/>
      <point x="491" y="-12" type="line" smooth="yes"/>
      <point x="524" y="-12"/>
      <point x="530" y="-5"/>
      <point x="541" y="18" type="curve" smooth="yes"/>
    </contour>
  </outline>
</glyph>
<glyph name="W" format="2">
  <advance width="1323"/>
  <unicode hex="0057"/>
  <outline>
    <contour>
      <point x="1194" y="612" type="line" smooth="yes"/>
      <point x="1201" y="630"/>
      <point x="1216" y="630"/>
      <point x="1266" y="630" type="curve" smooth="yes"/>
      <point x="1289" y="630" type="line"/>
      <point x="1289" y="686" type="line"/>
      <point x="1252" y="683"/>
      <point x="1216" y="682"/>
      <point x="1179" y="682" type="curve" smooth="yes"/>
      <point x="1146" y="682"/>
      <point x="1036" y="686"/>
      <point x="1032" y="686" type="curve"/>
      <point x="1032" y="630" type="line"/>
      <point x="1050" y="630" type="line" smooth="yes"/>
      <point x="1057" y="630"/>
      <point x="1130" y="630"/>
      <point x="1130" y="622" type="curve" smooth="yes"/>
      <point x="1130" y="619"/>
      <point x="1127" y="613"/>
      <point x="1126" y="610" type="curve"/>
      <point x="943" y="167" type="line"/>
      <point x="751" y="630" type="line"/>
      <point x="843" y="630" type="line"/>
      <point x="843" y="686" type="line"/>
      <point x="790" y="682"/>
      <point x="716" y="682"/>
      <point x="662" y="682" type="curve" smooth="yes"/>
      <point x="622" y="682"/>
      <point x="518" y="686"/>
      <point x="508" y="686" type="curve"/>
      <point x="508" y="630" type="line"/>
      <point x="595" y="630" type="line"/>
      <point x="627" y="553" type="line"/>
      <point x="467" y="167" type="line"/>
      <point x="276" y="630" type="line"/>
      <point x="367" y="630" type="line"/>
      <point x="367" y="686" type="line"/>
      <point x="351" y="685"/>
      <point x="219" y="682"/>
      <point x="187" y="682" type="curve" smooth="yes"/>
      <point x="147" y="682"/>
      <point x="43" y="686"/>
      <point x="33" y="686" type="curve"/>
      <point x="33" y="630" type="line"/>
      <point x="120" y="630" type="line"/>
      <point x="374" y="17" type="line" smooth="yes"/>
      <point x="384" y="-6"/>
      <point x="389" y="-12"/>
      <point x="423" y="-12" type="curve" smooth="yes"/>
      <point x="452" y="-12"/>
      <point x="461" y="-11"/>
      <point x="473" y="17" type="curve" smooth="yes"/>
      <point x="661" y="471" type="line"/>
      <point x="848" y="17" type="line" smooth="yes"/>
      <point x="860" y="-12"/>
      <point x="875" y="-12"/>
      <point x="899" y="-12" type="curve" smooth="yes"/>
      <point x="932" y="-12"/>
      <point x="938" y="-7"/>
      <point x="948" y="17" type="curve" smooth="yes"/>
    </contour>
  </outline>
</glyph>
<glyph name="bracketleft" format="2">
  <advance width="364"/>
  <unicode hex="005B"/>
  <outline>
    <contour>
      <point x="331" y="677" type="line"/>
      <point x="331" y="750" type="line"/>
      <point x="144" y="750" type="line"/>
      <point x="144" y="-250" type="line"/>
      <point x="331" y="-250" type="line"/>
      <point x="331" y="-177" type="line"/>
      <point x="217" y="-177" type="line"/>
      <point x="217" y="677" type="line"/>
    </contour>
  </outline>
</glyph>
<glyph name="h" format="2">
  <advance width="718"/>
  <unicode hex="0068"/>
  <outline>
    <contour>
      <point x="131" y="56" type="line"/>
      <point x="64" y="56" type="line"/>
      <point x="64" y="56" type="line"/>
      <point x="64" y="0" type="line"/>
      <point x="65" y="0"/>
      <point x="146" y="4"/>
      <point x="194" y="4" type="curve" smooth="yes"/>
      <point x="243" y="4"/>
      <point x="324" y="0"/>
      <point x="325" y="0" type="curve"/>
      <point x="325" y="56" type="line"/>
      <point x="325" y="56" type="line"/>
      <point x="258" y="56" type="line"/>
      <point x="258" y="249" type="line" smooth="yes"/>
      <point x="258" y="365"/>
      <point x="362" y="404"/>
      <point x="422" y="404" type="curve" smooth="yes"/>
      <point x="466" y="404"/>
      <point x="485" y="381"/>
      <point x="485" y="309" type="curve" smooth="yes"/>
      <point x="485" y="56" type="line"/>
      <point x="418" y="56" type="line"/>
      <point x="418" y="56" type="line"/>
      <point x="418" y="0" type="line"/>
      <point x="419" y="0"/>
      <point x="500" y="4"/>
      <point x="548" y="4" type="curve" smooth="yes"/>
      <point x="597" y="4"/>
      <point x="678" y="0"/>
      <point x="679" y="0" type="curve"/>
      <point x="679" y="56" type="line"/>
      <point x="679" y="56" type="line"/>
      <point x="612" y="56" type="line"/>
      <point x="612" y="301" type="line" smooth="yes"/>
      <point x="612" y="353"/>
      <point x="598" y="387"/>
      <point x="575" y="410" type="curve" smooth="yes"/>
      <point x="543" y="441"/>
      <point x="494" y="450"/>
      <point x="441" y="450" type="curve" smooth="yes"/>
      <point x="330" y="450"/>
      <point x="274" y="390"/>
      <point x="251" y="356" type="curve"/>
      <point x="251" y="356" type="line"/>
      <point x="251" y="694" type="line"/>
      <point x="64" y="686" type="line"/>
      <point x="64" y="630" type="line"/>
      <point x="123" y="630"/>
      <point x="131" y="630"/>
      <point x="131" y="591" type="curve" smooth="yes"/>
    </contour>
  </outline>
</glyph>
<glyph name="o" format="2">
  <advance width="647"/>
  <unicode hex="006F"/>
  <outline>
    <contour>
      <point x="606" y="218" type="curve" smooth="yes"/>
      <point x="606" y="337"/>
      <point x="519" y="453"/>
      <point x="323" y="453" type="curve" smooth="yes"/>
      <point x="125" y="453"/>
      <point x="40" y="336"/>
      <point x="40" y="218" type="curve" smooth="yes"/>
      <point x="40" y="101"/>
      <point x="129" y="-6"/>
      <point x="323" y="-6" type="curve" smooth="yes"/>
      <point x="518" y="-6"/>
      <point x="606" y="102"/>
    </contour>
    <contour>
      <point x="323" y="45" type="curve" smooth="yes"/>
      <point x="270" y="45"/>
      <point x="236.50613555840002" y="58.411348196400006"/>
      <point x="215.3404273047753" y="79.64967841220303" type="curve" smooth="yes"/>
      <point x="179.0" y="116.11479387320003"/>
      <point x="179.0" y="175.65316"/>
      <point x="179" y="230" type="curve" smooth="yes"/>
      <point x="179" y="280"/>
      <point x="179.0" y="336.640625"/>
      <point x="214.15625" y="372.08984375" type="curve" smooth="yes"/>
      <point x="235.25" y="393.359375"/>
      <point x="269" y="407"/>
      <point x="323" y="407" type="curve" smooth="yes"/>
      <point x="377.0" y="407.0"/>
      <point x="410.75" y="393.359375"/>
      <point x="431.84375" y="372.08984375" type="curve" smooth="yes"/>
      <point x="467.0" y="336.640625"/>
      <point x="467" y="280"/>
      <point x="467" y="230" type="curve" smooth="yes"/>
      <point x="467.0" y="175.65316"/>
      <point x="467.0" y="116.11479387320003"/>
      <point x="430.6595726952247" y="79.64967841220303" type="curve" smooth="yes"/>
      <point x="409.4938644416" y="58.41134819640001"/>
      <point x="376.00064000000003" y="45.00000000000001"/>
    </contour>
  </outline>
</glyph>
<glyph name="v" format="2">
  <advance width="682"/>
  <unicode hex="0076"/>
  <outline>
    <contour>
      <point x="101" y="388" type="line"/>
      <point x="288" y="22" type="line" smooth="yes"/>
      <point x="301" y="-4"/>
      <point x="311" y="-6"/>
      <point x="341" y="-6" type="curve" smooth="yes"/>
      <point x="371" y="-6"/>
      <point x="380" y="-4"/>
      <point x="394" y="22" type="curve" smooth="yes"/>
      <point x="573" y="371" type="line" smooth="yes"/>
      <point x="584" y="391"/>
      <point x="591" y="386"/>
      <point x="646" y="388" type="curve"/>
      <point x="646" y="444" type="line"/>
      <point x="615" y="442"/>
      <point x="594" y="440"/>
      <point x="562" y="440" type="curve" smooth="yes"/>
      <point x="532" y="440"/>
      <point x="493" y="441"/>
      <point x="463" y="444" type="curve"/>
      <point x="463" y="388" type="line"/>
      <point x="489" y="388"/>
      <point x="495" y="386"/>
      <point x="507" y="382" type="curve"/>
      <point x="507" y="382" type="line"/>
      <point x="373" y="119" type="line"/>
      <point x="236" y="388" type="line"/>
      <point x="236" y="388" type="line"/>
      <point x="283" y="388" type="line"/>
      <point x="283" y="444" type="line"/>
      <point x="240" y="442"/>
      <point x="196" y="440"/>
      <point x="153" y="440" type="curve" smooth="yes"/>
      <point x="114" y="440"/>
      <point x="75" y="441"/>
      <point x="36" y="444" type="curve"/>
      <point x="36" y="388" type="line"/>
    </contour>
  </outline>
</glyph>
<glyph name="w" format="2">
  <advance width="931"/>
  <unicode hex="0077"/>
  <outline>
    <contour>
      <point x="829" y="369" type="line"/>
      <point x="836" y="383"/>
      <point x="837" y="384"/>
      <point x="854" y="386" type="curve" smooth="yes"/>
      <point x="869" y="388"/>
      <point x="877" y="388"/>
      <point x="897" y="388" type="curve"/>
      <point x="897" y="444" type="line"/>
      <point x="870" y="442"/>
      <point x="842" y="440"/>
      <point x="815" y="440" type="curve" smooth="yes"/>
      <point x="780" y="440"/>
      <point x="746" y="441"/>
      <point x="711" y="444" type="curve"/>
      <point x="711" y="388" type="line"/>
      <point x="741" y="388"/>
      <point x="749" y="386"/>
      <point x="765" y="382" type="curve"/>
      <point x="648" y="111" type="line"/>
      <point x="528" y="388" type="line"/>
      <point x="528" y="388" type="line"/>
      <point x="578" y="388" type="line"/>
      <point x="578" y="444" type="line"/>
      <point x="575" y="444"/>
      <point x="502" y="440"/>
      <point x="460" y="440" type="curve" smooth="yes"/>
      <point x="430" y="440"/>
      <point x="389" y="441"/>
      <point x="359" y="444" type="curve"/>
      <point x="359" y="388" type="line"/>
      <point x="419" y="388" type="line"/>
      <point x="424" y="378"/>
      <point x="428" y="368"/>
      <point x="431" y="360" type="curve"/>
      <point x="334" y="136" type="line"/>
      <point x="224" y="388" type="line"/>
      <point x="224" y="388" type="line"/>
      <point x="275" y="388" type="line"/>
      <point x="275" y="444" type="line"/>
      <point x="232" y="442"/>
      <point x="188" y="440"/>
      <point x="145" y="440" type="curve" smooth="yes"/>
      <point x="107" y="440"/>
      <point x="39" y="444"/>
      <point x="33" y="444" type="curve"/>
      <point x="33" y="388" type="line"/>
      <point x="93" y="388" type="line"/>
      <point x="252" y="21" type="line" smooth="yes"/>
      <point x="264" y="-6"/>
      <point x="279" y="-6"/>
      <point x="302" y="-6" type="curve" smooth="yes"/>
      <point x="324" y="-6"/>
      <point x="341" y="-6"/>
      <point x="353" y="21" type="curve" smooth="yes"/>
      <point x="465" y="281" type="line"/>
      <point x="577" y="22" type="line" smooth="yes"/>
      <point x="589" y="-6"/>
      <point x="604" y="-6"/>
      <point x="628" y="-6" type="curve" smooth="yes"/>
      <point x="651" y="-6"/>
      <point x="666" y="-6"/>
      <point x="678" y="21" type="curve" smooth="yes"/>
    </contour>
  </outline>
</glyph>
<glyph name="y" format="2">
  <advance width="682"/>
  <unicode hex="0079"/>
  <outline>
    <contour>
      <point x="147" y="-200" type="curve" smooth="yes"/>
      <point x="221" y="-200"/>
      <point x="299" y="-158"/>
      <point x="344" y="-71" type="curve" smooth="yes"/>
      <point x="571" y="369" type="line" smooth="yes"/>
      <point x="581" y="389"/>
      <point x="592" y="387"/>
      <point x="646" y="388" type="curve"/>
      <point x="646" y="444" type="line"/>
      <point x="618" y="442"/>
      <point x="590" y="440"/>
      <point x="562" y="440" type="curve" smooth="yes"/>
      <point x="532" y="440"/>
      <point x="493" y="441"/>
      <point x="463" y="444" type="curve"/>
      <point x="463" y="388" type="line"/>
      <point x="487" y="388"/>
      <point x="491" y="387"/>
      <point x="506" y="382" type="curve"/>
      <point x="506" y="382" type="line"/>
      <point x="377" y="130" type="line"/>
      <point x="239" y="388" type="line"/>
      <point x="239" y="388" type="line"/>
      <point x="285" y="388" type="line"/>
      <point x="285" y="444" type="line"/>
      <point x="282" y="444"/>
      <point x="201" y="440"/>
      <point x="154" y="440" type="curve" smooth="yes"/>
      <point x="109" y="440"/>
      <point x="39" y="444"/>
      <point x="36" y="444" type="curve"/>
      <point x="36" y="388" type="line"/>
      <point x="102" y="388" type="line"/>
      <point x="309" y="0" type="line"/>
      <point x="270" y="-76" type="line" smooth="yes"/>
      <point x="239" y="-137"/>
      <point x="183" y="-154"/>
      <point x="148" y="-154" type="curve" smooth="yes"/>
      <point x="139" y="-154"/>
      <point x="137" y="-154"/>
      <point x="133" y="-153" type="curve"/>
      <point x="150" y="-141"/>
      <point x="159" y="-122"/>
      <point x="159" y="-100" type="curve" smooth="yes"/>
      <point x="159" y="-57"/>
      <point x="127" y="-35"/>
      <point x="94" y="-35" type="curve" smooth="yes"/>
      <point x="61" y="-35"/>
      <point x="29" y="-57"/>
      <point x="29" y="-100" type="curve" smooth="yes"/>
      <point x="29" y="-156"/>
      <point x="81" y="-200"/>
    </contour>
  </outline>
</glyph>
<glyph name="oslash" format="2">
  <advance width="647"/>
  <unicode hex="00F8"/>
  <outline>
    <contour>
      <point x="122" y="-110" type="line"/>
      <point x="205" y="10" type="line"/>
      <point x="237" y="0"/>
      <point x="279" y="-6"/>
      <point x="323" y="-6" type="curve" smooth="yes"/>
      <point x="518" y="-6"/>
      <point x="606" y="102"/>
      <point x="606" y="218" type="curve" smooth="yes"/>
      <point x="606" y="253"/>
      <point x="599" y="356"/>
      <point x="486" y="418" type="curve"/>
      <point x="561" y="529" type="line"/>
      <point x="524" y="555" type="line"/>
      <point x="442" y="436" type="line"/>
      <point x="394" y="452"/>
      <point x="343" y="453"/>
      <point x="323" y="453" type="curve" smooth="yes"/>
      <point x="125" y="453"/>
      <point x="40" y="336"/>
      <point x="40" y="218" type="curve" smooth="yes"/>
      <point x="40" y="135"/>
      <point x="86" y="62"/>
      <point x="161" y="28" type="curve"/>
      <point x="85" y="-84" type="line"/>
    </contour>
    <contour>
      <point x="323" y="40" type="curve" smooth="yes"/>
      <point x="312" y="40"/>
      <point x="271" y="40"/>
      <point x="237" y="56" type="curve"/>
      <point x="446" y="361" type="line"/>
      <point x="476" y="327"/>
      <point x="479" y="281"/>
      <point x="479" y="219" type="curve" smooth="yes"/>
      <point x="479.0" y="171.74396"/>
      <point x="479.0" y="114.04910428929998"/>
      <point x="441.4978818356311" y="77.16719800487407" type="curve" smooth="yes"/>
      <point x="418.6868425604" y="54.73340882229999"/>
      <point x="382.00076" y="39.99999999999999"/>
    </contour>
    <contour>
      <point x="199" y="83" type="line"/>
      <point x="167" y="117"/>
      <point x="167" y="172"/>
      <point x="167" y="219" type="curve" smooth="yes"/>
      <point x="167.0" y="267.23112"/>
      <point x="167.0" y="329.96097159839996"/>
      <point x="206.87180187023196" y="369.36246071318504" type="curve" smooth="yes"/>
      <point x="229.82783692639998" y="392.0477150272"/>
      <point x="266.00072" y="407.0"/>
      <point x="323" y="407" type="curve" smooth="yes"/>
      <point x="366" y="407"/>
      <point x="398" y="396"/>
      <point x="410" y="390" type="curve"/>
    </contour>
  </outline>
</glyph>
<glyph name="dotlessi" format="2">
  <advance width="363"/>
  <unicode hex="0131"/>
  <outline>
    <contour>
      <point x="254" y="450" type="line"/>
      <point x="70" y="442" type="line"/>
      <point x="70" y="386" type="line"/>
      <point x="127" y="386"/>
      <point x="134" y="386"/>
      <point x="134" y="347" type="curve" smooth="yes"/>
      <point x="134" y="56" type="line"/>
      <point x="134" y="56" type="line"/>
      <point x="67" y="56" type="line"/>
      <point x="67" y="0" type="line"/>
      <point x="69" y="0"/>
      <point x="148" y="4"/>
      <point x="193" y="4" type="curve" smooth="yes"/>
      <point x="234" y="4"/>
      <point x="274" y="3"/>
      <point x="315" y="0" type="curve"/>
      <point x="315" y="56" type="line"/>
      <point x="254" y="56" type="line"/>
    </contour>
  </outline>
</glyph>
<glyph name="hungarumlaut" format="2">
  <advance width="647"/>
  <unicode hex="02DD"/>
  <outline>
    <contour>
      <point x="156" y="546" type="line"/>
      <point x="207" y="508" type="line"/>
      <point x="307" y="591" type="line" smooth="yes"/>
      <point x="318" y="600"/>
      <point x="336" y="615"/>
      <point x="336" y="643" type="curve" smooth="yes"/>
      <point x="336" y="681"/>
      <point x="297" y="711"/>
      <point x="264" y="711" type="curve" smooth="yes"/>
      <point x="229" y="711"/>
      <point x="212" y="680"/>
      <point x="207" y="668" type="curve" smooth="yes"/>
    </contour>
    <contour>
      <point x="369" y="546" type="line"/>
      <point x="420" y="508" type="line"/>
      <point x="520" y="591" type="line" smooth="yes"/>
      <point x="531" y="600"/>
      <point x="549" y="615"/>
      <point x="549" y="643" type="curve" smooth="yes"/>
      <point x="549" y="681"/>
      <point x="510" y="711"/>
      <point x="477" y="711" type="curve" smooth="yes"/>
      <point x="442" y="711"/>
      <point x="425" y="680"/>
      <point x="420" y="668" type="curve" smooth="yes"/>
    </contour>
  </outline>
</glyph>
<glyph name="Gamma" format="2">
  <advance width="773"/>
  <unicode hex="0393"/>
  <outline>
    <contour>
      <point x="681" y="679" type="line"/>
      <point x="57" y="679" type="line"/>
      <point x="57" y="623" type="line"/>
      <point x="164" y="623" type="line"/>
      <point x="164" y="56" type="line"/>
      <point x="57" y="56" type="line"/>
      <point x="57" y="0" type="line"/>
      <point x="83" y="2"/>
      <point x="234" y="4"/>
      <point x="242" y="4" type="curve" smooth="yes"/>
      <point x="279" y="4"/>
      <point x="316" y="3"/>
      <point x="353" y="3" type="curve" smooth="yes"/>
      <point x="379" y="2"/>
      <point x="423" y="2"/>
      <point x="449" y="0" type="curve"/>
      <point x="449" y="56" type="line"/>
      <point x="315" y="56" type="line"/>
      <point x="315" y="623" type="line"/>
      <point x="456" y="623" type="line" smooth="yes"/>
      <point x="592" y="623"/>
      <point x="635" y="571"/>
      <point x="652" y="440" type="curve"/>
      <point x="715" y="440" type="line"/>
    </contour>
  </outline>
</glyph>
<glyph name="Theta" format="2">
  <advance width="1002"/>
  <unicode hex="0398"/>
  <outline>
    <contour>
      <point x="926" y="339" type="curve" smooth="yes"/>
      <point x="926" y="527"/>
      <point x="790" y="698"/>
      <point x="501" y="698" type="curve" smooth="yes"/>
      <point x="209" y="698"/>
      <point x="75" y="525"/>
      <point x="75" y="339" type="curve" smooth="yes"/>
      <point x="75" y="151"/>
      <point x="214" y="-12"/>
      <point x="500" y="-12" type="curve" smooth="yes"/>
      <point x="790" y="-12"/>
      <point x="926" y="154"/>
    </contour>
    <contour>
      <point x="500" y="36" type="curve" smooth="yes"/>
      <point x="439" y="36"/>
      <point x="345" y="50"/>
      <point x="281" y="131" type="curve" smooth="yes"/>
      <point x="230" y="195"/>
      <point x="225" y="288"/>
      <point x="225" y="339" type="curve" smooth="yes"/>
      <point x="225" y="418"/>
      <point x="237" y="500"/>
      <point x="289" y="564" type="curve" smooth="yes"/>
      <point x="339" y="624"/>
      <point x="419" y="652"/>
      <point x="500" y="652" type="curve" smooth="yes"/>
      <point x="573" y="652"/>
      <point x="658" y="632"/>
      <point x="718" y="556" type="curve" smooth="yes"/>
      <point x="771" y="489"/>
      <point x="776" y="388"/>
      <point x="776" y="339" type="curve" smooth="yes"/>
      <point x="776" y="234"/>
      <point x="749" y="36"/>
    </contour>
    <contour>
      <point x="704" y="443" type="line"/>
      <point x="641" y="443" type="line"/>
      <point x="641" y="409" type="line"/>
      <point x="360" y="409" type="line"/>
      <point x="360" y="443" type="line"/>
      <point x="297" y="443" type="line"/>
      <point x="297" y="245" type="line"/>
      <point x="360" y="245" type="line"/>
      <point x="360" y="279" type="line"/>
      <point x="641" y="279" type="line"/>
      <point x="641" y="245" type="line"/>
      <point x="704" y="245" type="line"/>
    </contour>
  </outline>
</glyph>
<glyph name="Lambda" format="2">
  <advance width="896"/>
  <unicode hex="039B"/>
  <outline>
    <contour>
      <point x="503" y="675" type="line" smooth="yes"/>
      <point x="491" y="704"/>
      <point x="475" y="704"/>
      <point x="455" y="704" type="curve" smooth="yes"/>
      <point x="441" y="704" type="line" smooth="yes"/>
      <point x="414" y="704"/>
      <point x="405" y="701"/>
      <point x="394" y="675" type="curve" smooth="yes"/>
      <point x="145" y="75" type="line" smooth="yes"/>
      <point x="139" y="61"/>
      <point x="138" y="60"/>
      <point x="117" y="58" type="curve" smooth="yes"/>
      <point x="104" y="57"/>
      <point x="87" y="56"/>
      <point x="74" y="56" type="curve" smooth="yes"/>
      <point x="50" y="56" type="line"/>
      <point x="50" y="0" type="line"/>
      <point x="64" y="1"/>
      <point x="136" y="4"/>
      <point x="164" y="4" type="curve" smooth="yes"/>
      <point x="208" y="4"/>
      <point x="301" y="0"/>
      <point x="306" y="0" type="curve"/>
      <point x="306" y="56" type="line"/>
      <point x="292" y="56"/>
      <point x="219" y="56"/>
      <point x="219" y="65" type="curve" smooth="yes"/>
      <point x="219" y="66"/>
      <point x="220" y="68"/>
      <point x="223" y="76" type="curve" smooth="yes"/>
      <point x="405" y="516" type="line"/>
      <point x="595" y="56" type="line"/>
      <point x="504" y="56" type="line"/>
      <point x="504" y="0" type="line"/>
      <point x="556" y="4"/>
      <point x="635" y="4"/>
      <point x="688" y="4" type="curve" smooth="yes"/>
      <point x="734" y="4"/>
      <point x="828" y="1"/>
      <point x="846" y="0" type="curve"/>
      <point x="846" y="56" type="line"/>
      <point x="758" y="56" type="line"/>
    </contour>
  </outline>
</glyph>
<glyph name="quotedblleft" format="2">
  <advance width="667"/>
  <unicode hex="201C"/>
  <outline>
    <contour>
      <point x="269" y="337" type="curve" smooth="yes"/>
      <point x="320" y="337"/>
      <point x="350" y="376"/>
      <point x="350" y="418" type="curve" smooth="yes"/>
      <point x="350" y="461"/>
      <point x="320" y="500"/>
      <point x="268" y="500" type="curve" smooth="yes"/>
      <point x="237" y="500"/>
      <point x="217" y="483"/>
      <point x="216" y="483" type="curve"/>
      <point x="224" y="571"/>
      <point x="273" y="621"/>
      <point x="313" y="651" type="curve"/>
      <point x="319" y="656"/>
      <point x="325" y="660"/>
      <point x="325" y="669" type="curve" smooth="yes"/>
      <point x="325" y="679"/>
      <point x="311" y="694"/>
      <point x="300" y="694" type="curve" smooth="yes"/>
      <point x="283" y="694"/>
      <point x="169" y="609"/>
      <point x="169" y="466" type="curve" smooth="yes"/>
      <point x="169" y="395"/>
      <point x="208" y="337"/>
    </contour>
    <contour>
      <point x="539" y="337" type="curve" smooth="yes"/>
      <point x="590" y="337"/>
      <point x="620" y="376"/>
      <point x="620" y="418" type="curve" smooth="yes"/>
      <point x="620" y="461"/>
      <point x="590" y="500"/>
      <point x="538" y="500" type="curve" smooth="yes"/>
      <point x="507" y="500"/>
      <point x="487" y="483"/>
      <point x="486" y="483" type="curve"/>
      <point x="494" y="571"/>
      <point x="543" y="621"/>
      <point x="583" y="651" type="curve"/>
      <point x="589" y="656"/>
      <point x="595" y="660"/>
      <point x="595" y="669" type="curve" smooth="yes"/>
      <point x="595" y="679"/>
      <point x="581" y="694"/>
      <point x="570" y="694" type="curve" smooth="yes"/>
      <point x="553" y="694"/>
      <point x="439" y="609"/>
      <point x="439" y="466" type="curve" smooth="yes"/>
      <point x="439" y="395"/>
      <point x="478" y="337"/>
    </contour>
  </outline>
</glyph>
<glyph name="Omega" format="2">
  <advance width="931"/>
  <unicode hex="2126"/>
  <outline>
    <contour>
      <point x="869" y="203" type="line"/>
      <point x="806" y="203" type="line"/>
      <point x="789" y="115"/>
      <point x="789" y="112"/>
      <point x="718" y="112" type="curve" smooth="yes"/>
      <point x="645" y="112" type="line"/>
      <point x="668" y="153"/>
      <point x="703" y="193"/>
      <point x="736" y="228" type="curve" smooth="yes"/>
      <point x="794" y="293"/>
      <point x="855" y="364"/>
      <point x="855" y="456" type="curve" smooth="yes"/>
      <point x="855" y="565"/>
      <point x="758" y="698"/>
      <point x="465" y="698" type="curve" smooth="yes"/>
      <point x="173" y="698"/>
      <point x="75" y="565"/>
      <point x="75" y="456" type="curve" smooth="yes"/>
      <point x="75" y="369"/>
      <point x="129" y="300"/>
      <point x="189" y="234" type="curve" smooth="yes"/>
      <point x="238" y="181"/>
      <point x="266" y="148"/>
      <point x="285" y="112" type="curve"/>
      <point x="212" y="112" type="line" smooth="yes"/>
      <point x="141" y="112"/>
      <point x="141" y="115"/>
      <point x="124" y="203" type="curve"/>
      <point x="61" y="203" type="line"/>
      <point x="102" y="0" type="line"/>
      <point x="320" y="0" type="line" smooth="yes"/>
      <point x="341" y="0"/>
      <point x="355" y="0"/>
      <point x="355" y="30" type="curve" smooth="yes"/>
      <point x="355" y="103"/>
      <point x="320" y="187"/>
      <point x="297" y="244" type="curve" smooth="yes"/>
      <point x="265" y="320"/>
      <point x="238" y="386"/>
      <point x="238" y="457" type="curve" smooth="yes"/>
      <point x="238" y="609"/>
      <point x="354" y="652"/>
      <point x="465" y="652" type="curve" smooth="yes"/>
      <point x="573" y="652"/>
      <point x="692" y="612"/>
      <point x="692" y="457" type="curve" smooth="yes"/>
      <point x="692" y="386"/>
      <point x="665" y="319"/>
      <point x="634" y="244" type="curve" smooth="yes"/>
      <point x="611" y="190"/>
      <point x="575" y="103"/>
      <point x="575" y="30" type="curve" smooth="yes"/>
      <point x="575" y="0"/>
      <point x="590" y="0"/>
      <point x="611" y="0" type="curve" smooth="yes"/>
      <point x="828" y="0" type="line"/>
    </contour>
  </outline>
</glyph>
